Coordinates
version=1
nRows=17
nColumns=36
inDegrees=yes

Units are S.I. units (second, meters, Newtons, ...)
If the header above contains a line with 'inDegrees', this indicates whether rotational values are in degrees (yes) or radians (no).

endheader
time	pelvis_tilt	pelvis_list	pelvis_rotation	pelvis_tx	pelvis_ty	pelvis_tz	hip_flexion_r	hip_adduction_r	hip_rotation_r	knee_angle_r	knee_angle_r_beta	ankle_angle_r	subtalar_angle_r	mtp_angle_r	hip_flexion_l	hip_adduction_l	hip_rotation_l	knee_angle_l	knee_angle_l_beta	ankle_angle_l	subtalar_angle_l	mtp_angle_l	lumbar_extension	lumbar_bending	lumbar_rotation	arm_flex_r	arm_add_r	arm_rot_r	elbow_flex_r	pro_sup_r	arm_flex_l	arm_add_l	arm_rot_l	elbow_flex_l	pro_sup_l
      1.66666670	     -2.83410275	     -0.78022862	      3.86880113	     -0.08425948	      1.22624203	      0.30389590	     10.36868327	     -1.06740227	      2.69244415	     17.81035077	      0.31084926	     10.65349766	    -10.89483714	     -7.50000346	      8.69293081	     -3.95382046	     -5.31035640	     15.19996073	      0.26528936	      9.19328745	    -10.27605932	     -7.50000346	     -8.13780473	      0.14956238	      1.98223556	     36.39172769	      2.41119657	     66.74680146	    119.89783761	     95.77813028	     39.11606699	     -3.13189780	     59.63381958	    113.01213990	    102.21423673
      1.68333330	     -3.15058779	     -0.86347491	      3.92540375	     -0.08446841	      1.22910399	      0.30348325	     10.86929417	     -1.02513997	      2.48603324	     17.97600050	      0.31374040	     10.48494034	    -10.82101228	     -7.50000281	      9.29401303	     -4.05580262	     -5.49240843	     15.42102421	      0.26914765	      9.13234869	    -10.32442795	     -7.50000281	     -8.29125087	      0.17208017	      2.23644141	     36.53877051	      2.43395677	     67.12501164	    120.11354478	     94.20715936	     39.30742368	     -3.03579386	     60.12104803	    112.91017131	     99.80580716
      1.70000000	     -3.61207474	     -0.96681619	      3.92687198	     -0.08342893	      1.22535472	      0.30373100	     11.50424004	     -0.92978670	      2.41803222	     18.10347314	      0.31596521	     10.29871451	    -10.82484765	     -7.50000276	      9.91908739	     -4.17185510	     -5.67414535	     15.59354582	      0.27215872	      9.17304888	    -10.16464697	     -7.50000276	     -8.08799873	      0.17141208	      2.57243875	     36.35199757	      2.37447929	     67.07293237	    120.41692236	     95.60250617	     39.29988702	     -2.79037949	     60.19758797	    112.99392687	    100.87360719
      1.71666670	     -4.27958221	     -1.02993955	      3.93848841	     -0.08312211	      1.22481498	      0.30334315	     12.33255592	     -0.91226288	      2.38247554	     18.19576530	      0.31757601	     10.16584641	    -10.83958365	     -7.50000266	     10.76987040	     -4.19068303	     -5.68974185	     15.78581641	      0.27551447	      9.03985249	    -10.36802103	     -7.50000266	     -7.56290773	      0.17429932	      2.73459757	     36.16458769	      2.24248576	     67.06738458	    120.47828353	     94.99010307	     38.86726610	     -2.64810811	     60.43476327	    112.96199781	    100.76636474
      1.73333330	     -4.49668400	     -1.05997550	      3.99626453	     -0.08304004	      1.22187195	      0.30385589	     12.74540024	     -0.88178221	      2.34682152	     18.39236205	      0.32100728	     10.22598710	    -10.84677160	     -7.50000166	     11.20376451	     -4.22754931	     -5.73989682	     16.11446707	      0.28125051	      9.18826993	    -10.37210142	     -7.50000166	     -7.77518018	      0.08846184	      3.12857316	     36.42227053	      2.24404768	     66.97331812	    121.40187793	     98.03111452	     39.42041165	     -2.26510590	     60.81376284	    113.48720819	    103.08558466
      1.75000000	     -4.77548982	     -1.12344772	      4.14047137	     -0.08294545	      1.22181707	      0.30334490	     13.03635818	     -0.87039252	      2.12388710	     18.29065830	      0.31923221	     10.32249182	    -10.46962087	     -7.50000138	     11.63019363	     -4.24966823	     -5.72283175	     16.28556209	      0.28423668	      9.14914867	    -10.36649438	     -7.50000138	     -7.84049144	      0.13667533	      3.33456928	     36.76449840	      2.10612080	     67.26729600	    121.57802478	     98.20362413	     39.57747730	     -1.94617409	     61.09269292	    114.04029256	    103.72809529
      1.76666670	     -5.02838354	     -1.13160712	      4.25198996	     -0.08243583	      1.22154637	      0.30361543	     13.29705235	     -0.89155461	      2.05373409	     18.18612531	      0.31740776	     10.50757808	    -10.17629936	     -7.50000122	     11.95149347	     -4.17844914	     -5.56295209	     16.31513710	      0.28475286	      9.19908318	    -10.49751690	     -7.50000122	     -7.91987380	      0.08961103	      3.62175079	     36.83467452	      1.80192919	     67.29077946	    121.61935132	     97.78096696	     39.53154127	     -1.69742168	     61.17522326	    113.69614892	    104.24251937
      1.78333330	     -5.33259199	     -1.15858234	      4.30396258	     -0.08223592	      1.21828526	      0.30335093	     13.67804824	     -0.86225896	      2.17897424	     18.08588018	      0.31565816	     10.60980576	    -10.03810414	     -7.50000077	     12.34202956	     -4.16691331	     -5.55063255	     16.38845375	      0.28603248	      9.35205753	    -10.23577385	     -7.50000077	     -7.92689467	      0.07867591	      3.98754617	     37.10074096	      1.67360717	     67.43320656	    121.85968376	     99.03181701	     39.65647439	     -1.41554812	     61.68626705	    113.84617272	    104.29796081
      1.80000000	     -5.56336440	     -1.15837327	      4.32392779	     -0.08179785	      1.21840702	      0.30369143	     13.97794001	     -0.85983907	      2.33966870	     18.09806565	      0.31587083	     10.75338841	     -9.90494414	     -7.50000060	     12.64836184	     -4.12968923	     -5.43812577	     16.53698549	      0.28862485	      9.35673052	    -10.37505340	     -7.50000060	     -8.07492946	     -0.00415445	      3.85873984	     37.08763943	      1.69744572	     67.69954805	    121.98390109	     98.68994438	     39.86027247	     -1.38168448	     61.77630871	    113.92286235	    104.54057403
      1.81666670	     -5.76960609	     -1.17481559	      4.42406889	     -0.09133583	      1.22127692	      0.30046768	     14.46465024	     -0.86944648	      2.46768644	     18.42008696	      0.32149117	     10.94749267	     -9.74075239	     -7.50000059	     13.20876036	     -4.12201926	     -5.30045247	     16.98416400	      0.29642958	      9.65092445	    -10.37828634	     -7.50000059	     -8.71038525	      0.06859486	      3.63985055	     37.51707647	      1.17550256	     67.79301016	    121.73918286	     98.76202793	     40.00887436	     -1.41485334	     61.85669837	    113.26669588	    104.53389446
      1.83333330	     -6.31590822	     -1.20715727	      4.55441009	     -0.09060848	      1.22081172	      0.30066202	     15.51768941	     -0.93725524	      2.51769022	     19.04194450	      0.33234463	     11.21333704	     -9.62366949	     -7.50000042	     14.17391004	     -4.07687851	     -5.16886071	     17.51209174	      0.30564366	      9.93017188	    -10.38758037	     -7.50000042	     -9.06442138	      0.06093540	      3.75972929	     37.66317346	      0.57374475	     67.81979683	    122.01203335	     99.03866042	     40.23319584	     -1.34637455	     62.63433572	    112.55691715	    104.58938216
      1.85000000	     -7.00375075	     -1.30455531	      4.62609045	     -0.09856618	      1.21702307	      0.30396359	     16.96039646	     -0.91848997	      2.63849014	     20.00384154	      0.34913290	     11.25755883	     -9.70978228	     -7.50000040	     15.67464675	     -4.14295117	     -4.96306727	     18.52492772	      0.32332098	     10.30414102	    -10.66886368	     -7.50000040	     -9.32119510	      0.13817387	      3.83295573	     38.74175758	      0.62228912	     67.54530903	    121.57035400	     98.77049060	     40.96954107	     -1.19775411	     63.02425791	    112.55122988	    104.08050599
      1.86666670	     -7.40077533	     -1.37976683	      4.71943802	     -0.09772133	      1.21685479	      0.30410105	     18.02645862	     -0.89330317	      2.79622557	     20.85969157	      0.36407030	     11.38866337	     -9.75956720	     -7.50000039	     16.76957025	     -4.19553649	     -4.81682168	     19.36777311	      0.33803141	     10.62244244	    -11.00514543	     -7.50000039	     -9.92171914	      0.19277275	      3.77635279	     39.35649122	      0.60354952	     66.99270802	    121.01848014	     98.79648943	     41.61962148	     -1.35935774	     63.34362111	    112.64607670	    104.10102751
      1.88333330	     -8.16047948	     -1.41610928	      4.75741459	     -0.09784129	      1.21611301	      0.30366854	     19.48618364	     -0.97749445	      2.78549951	     21.77376014	      0.38002381	     11.53179085	     -9.58473644	     -7.50000033	     18.13452299	     -4.14911069	     -4.71857041	     20.12157570	      0.35118775	     10.76749724	    -11.45635236	     -7.50000033	     -9.80736469	      0.18946663	      3.64784566	     39.11248147	      0.53127532	     67.27521554	    120.76435563	     98.63554082	     41.64339760	     -1.66612233	     63.95434352	    112.37722254	    104.14137111
      1.90000000	     -8.58795927	     -1.41114725	      4.75598370	     -0.09694411	      1.21565816	      0.30391988	     20.44200965	     -1.09630910	      2.70527685	     22.53385313	      0.39328993	     11.83252096	     -9.35986661	     -7.50000024	     18.96068540	     -4.12400635	     -4.77852286	     20.73148982	      0.36183276	     11.02614881	    -11.47910717	     -7.50000024	    -10.13562151	      0.16007504	      3.71208273	     39.19696613	      0.42722785	     67.84509351	    120.62318757	     99.08896956	     41.63193831	     -1.82635183	     64.46068004	    112.47521866	    104.57955209
      1.91666670	     -9.23253610	     -1.42630480	      4.76856044	     -0.09725757	      1.21215718	      0.30372052	     21.64893783	     -1.23719277	      2.55420563	     23.39755168	      0.40836431	     12.11172443	     -9.14339801	     -7.50000016	     20.09636389	     -4.09752429	     -4.79040547	     21.45986315	      0.37454527	     11.34849786	    -11.54666231	     -7.50000016	    -10.11364137	      0.16513281	      3.72334476	     39.40152367	      0.56312186	     68.23614023	    120.63406126	     95.45463004	     41.63748589	     -1.96285287	     65.34246668	    112.82688859	    100.27731679
      1.93333330	     -9.67660731	     -1.44739211	      4.91653886	     -0.09623051	      1.21192218	      0.30385312	     22.46988026	     -1.36381884	      2.43662307	     24.02994175	      0.41940160	     12.30830715	     -9.09572041	     -7.50000011	     20.90701562	     -4.03083621	     -4.77017692	     21.93161516	      0.38277889	     11.42684826	    -11.73813091	     -7.50000011	    -10.29984548	      0.13735446	      3.86529958	     39.61988463	      0.72726562	     67.68794634	    120.62837265	     99.89152848	     41.86524639	     -1.91475059	     66.16257017	    113.11829996	    104.68589421
